Patient4_TMGait_0pt3_01_right_09_EMG.mot
version=1
nRows=13
nColumns=33
inDegrees=no
endheader
time	1LAddLong	2LGlutMax	3LGlutMed	4LIliopsoas	5LSemiMemb	6LBicFemLong	7LRecFem	8LVastMed	9LVastLat	10LGasMed	11LTibAnt	12lTibPost	13LPeroneusLong	14LSol	15LExtDigLong	16LFlexDigLong	17RAddLong	18RGlutMax	19RGlutMed	20RIliopsoas	21RSemiMemb	22RBicFemLong	23RRecFem	24RVastMed	25RVastLat	26RGasMed	27RTibAnt	28RTibPost	29RPeroneusLong	30RSol	31RExtDigLong	32RFlexDigLong
15.52	0.031281	0.036469	-0.009003	0.017242	0.032196	0.14465	-0.14832	0.019531	0.036469	-0.007782	0.000153	-0.03006	0.19287	0.12558	0.019836	0.00824	0.011139	0.004883	0.067596	-0.027161	-0.017548	-0.037231	0.18845	0.010834	0.010529	-0.015869	0.01236	-0.000458	-0.028687	-0.13031	0.001984	-0.00824
15.521	0.027466	-0.050964	-0.1059	0.010681	0.011749	0.13412	-0.14557	0.007019	0.13519	0.044708	0.012207	-0.068054	0.12665	0.091553	0.020599	0.026855	0.14023	-0.066986	0.018005	-0.036926	-0.051117	-0.068054	0.15762	-0.003204	0.003357	0.007477	0.29541	-0.002136	0.013885	-0.17303	0.003204	-0.001984
15.522	0.024109	-0.031128	0.047302	0.003815	0.015259	0.11536	0.046234	-0.013733	0.15549	0.13657	-0.002594	-0.024872	0.19318	0.1062	-0.007324	-0.0177	0.15243	-0.06485	0.23789	-0.037842	-0.065308	-0.069122	0.1416	-0.016479	0.006866	0.001984	0.73288	-0.000305	-0.059662	-0.14114	0.010529	-0.001221
15.523	0.019226	0.015411	0.095062	0.026398	0.005188	0.15991	0.16968	-0.017548	0.12802	0.22766	0.006866	-0.013733	0.47546	0.12665	-0.000305	-0.034485	0.13534	-0.069275	0.24674	0.065308	-0.069275	-0.092468	0.12314	-0.012665	0.014648	0.000305	0.70602	-0.003357	-0.14755	-0.05661	0.001984	-0.003052
15.524	0.008545	-0.015717	0.098419	0.016937	0.001373	0.12375	0.30548	-0.029755	0.056305	0.30334	0.01297	-0.017853	-0.30441	0.040588	-0.033722	0.082703	0.046387	-0.013428	0.14328	0.23407	-0.083008	-0.089569	0.13138	-0.041656	-0.00351	-0.010529	0.55115	-0.003204	-0.17242	-0.010529	0.006714	-0.009918
15.525	-0.006866	0.008392	0.032349	0.00061	0.005798	0.08194	0.37399	-0.010071	0.035706	0.36652	0.010223	-0.012665	-0.03891	-0.37964	-0.049438	-0.086823	-0.026855	0.013733	0.055847	0.10666	-0.07019	-0.061188	0.088959	-0.041656	0.014496	-0.007477	-0.13229	-0.003204	-0.093231	-0.064087	0.002594	-0.008545
15.526	-0.013123	0.002747	-0.083771	0.004578	-0.001984	0.1059	0.35431	0.011749	0.059509	0.13977	0.031738	0.035706	0.68863	-0.53497	0.007019	0.1532	-0.06073	-0.044403	0.027313	-0.070648	-0.065613	-0.069885	0.081024	-0.015411	0.006409	-0.002289	-0.56915	-0.002899	-0.07431	-0.064545	0.020752	-0.010223
15.527	-0.010681	-0.010223	-0.040894	0.003052	-0.011749	0.10239	0.23743	0.026855	0.10971	-0.063934	-0.010376	0.039063	0.30823	-0.44617	0.088654	0.32028	-0.035858	-0.063934	-0.096283	-0.16663	-0.037842	-0.065308	0.067749	-0.029144	0.025177	-0.004883	-0.63644	-0.002899	0.019379	-0.027313	0.011444	-0.007782
15.528	-0.006714	-0.005341	-0.025482	0.015869	-0.066528	0.068054	0.15274	0.0177	0.063477	-0.13489	-0.000763	-0.060425	-0.032959	-0.19684	0.062408	-0.095367	0.031281	-0.049744	-0.12268	-0.10742	-0.027466	-0.059967	0.079498	0.063782	0.02655	-0.00351	-0.58075	-0.008392	0.10971	0.079193	0.006714	-0.00824
15.529	-0.00885	-0.012512	-0.062866	0	-0.052643	-0.22919	0.052185	0.014191	0.26306	-0.1181	0.024719	-0.014191	-0.25116	0.061951	-0.013885	-0.13138	0.086823	-0.085144	-0.14511	0.062256	-0.003357	-0.045624	0.11078	-0.001068	0.019073	-0.005951	-0.092468	-0.00412	0.10284	0.13886	0.003662	-0.011597
15.53	-0.002594	0.007324	-0.04776	0.00061	-0.000153	-0.28336	-0.12802	0.009918	0.36789	-0.11871	-0.001526	0.002899	-0.10437	0.336	-0.097046	-0.035553	0.13534	-0.095062	-0.063629	0.15427	0.007629	-0.040436	0.081329	0.055237	0.034027	-0.009766	-0.21637	-0.007782	-0.028992	0.14984	0.007324	-0.01709
15.531	-0.002289	0.055084	0.14282	0.013733	0.042572	-0.097656	-0.25162	0.003052	0.38101	-0.046844	0.009766	-0.00824	-0.298	0.2095	-0.050964	-0.016022	0.1088	-0.016327	-0.015869	0.15808	0.013275	-0.027466	0.090179	0.043335	0.025635	-0.003357	0.081024	-0.000916	0.027618	0.073242	0.009003	-0.014343
15.532	-0.002136	0.052338	0.017548	0.018311	0.048065	0.057678	-0.32379	-0.010834	0.39337	-0.10346	-0.004425	0.002594	-0.096893	0.27817	0.0383	0.011597	0.039978	0.003204	-0.028076	0.087891	0.01358	-0.019226	0.068207	0.071869	0.040588	-0.004272	0.24811	0.001221	0.068817	-0.012817	0.005341	-0.015259
